<?xml version="1.0" encoding="UTF-8" standalone="no"?>
<!-- Created with Inkscape (http://www.inkscape.org/) -->

<svg
   xmlns:dc="http://purl.org/dc/elements/1.1/"
   xmlns:cc="http://creativecommons.org/ns#"
   xmlns:rdf="http://www.w3.org/1999/02/22-rdf-syntax-ns#"
   xmlns:svg="http://www.w3.org/2000/svg"
   xmlns="http://www.w3.org/2000/svg"
   xmlns:xlink="http://www.w3.org/1999/xlink"
   xmlns:sodipodi="http://sodipodi.sourceforge.net/DTD/sodipodi-0.dtd"
   xmlns:inkscape="http://www.inkscape.org/namespaces/inkscape"
   inkscape:export-ydpi="120"
   inkscape:export-xdpi="120"
   inkscape:export-filename="/home/thomas/Code/batis/batis_info/icons/hicolor/64x64/apps/batis.png"
   width="48px"
   height="48px"
   id="svg11300"
   sodipodi:version="0.32"
   inkscape:version="0.91 r"
   sodipodi:docname="logo-large.svg"
   inkscape:output_extension="org.inkscape.output.svg.inkscape"
   version="1.1">
  <defs
     id="defs3">
    <linearGradient
       id="linearGradient11520">
      <stop
         id="stop11522"
         offset="0.0000000"
         style="stop-color:#ffffff;stop-opacity:1.0000000;" />
      <stop
         id="stop11524"
         offset="1.0000000"
         style="stop-color:#dcdcdc;stop-opacity:1.0000000;" />
    </linearGradient>
    <linearGradient
       id="linearGradient11508"
       inkscape:collect="always">
      <stop
         id="stop11510"
         offset="0"
         style="stop-color:#000000;stop-opacity:1;" />
      <stop
         id="stop11512"
         offset="1"
         style="stop-color:#000000;stop-opacity:0;" />
    </linearGradient>
    <radialGradient
       inkscape:collect="always"
       xlink:href="#linearGradient11508"
       id="radialGradient1348"
       gradientUnits="userSpaceOnUse"
       gradientTransform="matrix(2.0377628,0,0,0.68970528,-41.702363,10.646809)"
       cx="30.203562"
       cy="44.565483"
       fx="30.203562"
       fy="44.565483"
       r="6.5659914" />
    <linearGradient
       id="linearGradient9662"
       inkscape:collect="always">
      <stop
         id="stop9664"
         offset="0"
         style="stop-color:#ffffff;stop-opacity:1;" />
      <stop
         id="stop9666"
         offset="1"
         style="stop-color:#ffffff;stop-opacity:0;" />
    </linearGradient>
    <linearGradient
       id="linearGradient9649">
      <stop
         id="stop9651"
         offset="0"
         style="stop-color:#fcaf3e;stop-opacity:1;" />
      <stop
         id="stop9653"
         offset="1"
         style="stop-color:#d37f03;stop-opacity:1;" />
    </linearGradient>
    <linearGradient
       id="linearGradient3394"
       gradientUnits="userSpaceOnUse"
       x1="12.2744"
       y1="32.4165"
       x2="35.3912"
       y2="14.2033">
      <stop
         offset="0.0000000"
         style="stop-color:#fff307;stop-opacity:1.0000000;"
         id="stop3396" />
      <stop
         offset="0.50000000"
         style="stop-color:#166eff;stop-opacity:1.0000000;"
         id="stop3398" />
      <stop
         offset="1.0000000"
         style="stop-color:#ffffff;stop-opacity:0.0000000;"
         id="stop3400" />
    </linearGradient>
    <radialGradient
       inkscape:collect="always"
       xlink:href="#linearGradient3394"
       id="radialGradient10580"
       gradientUnits="userSpaceOnUse"
       gradientTransform="matrix(0.441746,0.498655,-0.407098,0.360624,32.00755,10.21308)"
       cx="37.751469"
       cy="27.569166"
       fx="37.751469"
       fy="27.569166"
       r="21.333334" />
    <linearGradient
       inkscape:collect="always"
       xlink:href="#linearGradient9662"
       id="linearGradient10578"
       gradientUnits="userSpaceOnUse"
       x1="28.702885"
       y1="31.494707"
       x2="17.742729"
       y2="18.366575" />
    <linearGradient
       inkscape:collect="always"
       xlink:href="#linearGradient9662"
       id="linearGradient10576"
       gradientUnits="userSpaceOnUse"
       gradientTransform="matrix(0.573842,0,0,0.573842,20.97995,19.56347)"
       x1="10.501720"
       y1="3.6100161"
       x2="48.798885"
       y2="54.698483" />
    <linearGradient
       inkscape:collect="always"
       xlink:href="#linearGradient9662"
       id="linearGradient10574"
       gradientUnits="userSpaceOnUse"
       gradientTransform="matrix(0.717302,0,0,0.717302,17.73603,18.06909)"
       x1="21.125000"
       y1="14.625000"
       x2="29.000000"
       y2="28.000000" />
    <linearGradient
       y2="14.2033"
       x2="35.3912"
       y1="32.4165"
       x1="12.2744"
       gradientUnits="userSpaceOnUse"
       id="aigrd2">
      <stop
         id="stop3043"
         style="stop-color:#FBFBFB"
         offset="0" />
      <stop
         id="stop3045"
         style="stop-color:#B6B6B6"
         offset="0.5" />
      <stop
         id="stop3047"
         style="stop-color:#E4E4E4"
         offset="1" />
    </linearGradient>
    <linearGradient
       inkscape:collect="always"
       xlink:href="#aigrd2"
       id="linearGradient10570"
       gradientUnits="userSpaceOnUse"
       gradientTransform="matrix(0.705308,0,0,0.705308,18.02392,17.61692)"
       x1="12.2744"
       y1="32.4165"
       x2="35.3912"
       y2="14.2033" />
    <linearGradient
       inkscape:collect="always"
       xlink:href="#aigrd1"
       id="linearGradient10568"
       gradientUnits="userSpaceOnUse"
       gradientTransform="matrix(0.683145,0,0,0.683145,18.55581,18.12886)"
       x1="14.9966"
       y1="11.1885"
       x2="32.511"
       y2="34.3075" />
    <radialGradient
       inkscape:collect="always"
       xlink:href="#linearGradient11508"
       id="radialGradient10566"
       gradientUnits="userSpaceOnUse"
       gradientTransform="matrix(1,0,0,0.333333,2.030559e-14,25.06362)"
       cx="24.546707"
       cy="37.595428"
       fx="24.546707"
       fy="37.595428"
       r="22.728432" />
    <linearGradient
       y2="248.6311"
       x2="153.0005"
       y1="15.4238"
       x1="99.7773"
       gradientUnits="userSpaceOnUse"
       id="aigrd1">
      <stop
         id="stop53300"
         style="stop-color:#184375"
         offset="0" />
      <stop
         id="stop53302"
         style="stop-color:#C8BDDC"
         offset="1" />
    </linearGradient>
    <radialGradient
       gradientTransform="matrix(1.727873,0,0,1.727873,-17.67698,-26.72805)"
       gradientUnits="userSpaceOnUse"
       r="20.410614"
       fy="36.720772"
       fx="24.285801"
       cy="36.720772"
       cx="24.285801"
       id="radialGradient9657"
       xlink:href="#linearGradient9649"
       inkscape:collect="always" />
    <linearGradient
       gradientUnits="userSpaceOnUse"
       y2="52.807446"
       x2="28.786495"
       y1="10.027484"
       x1="26.502604"
       id="linearGradient9668"
       xlink:href="#linearGradient9662"
       inkscape:collect="always" />
    <radialGradient
       r="17.143"
       gradientTransform="matrix(1,0,0,0.5,0,20)"
       cx="23.857"
       cy="40"
       gradientUnits="userSpaceOnUse"
       id="radialGradient3976">
      <stop
         offset="0"
         id="stop4128" />
      <stop
         offset="1"
         stop-opacity="0"
         id="stop4130" />
    </radialGradient>
    <linearGradient
       x1="43.936"
       y1="53.836"
       x2="20.065"
       gradientUnits="userSpaceOnUse"
       y2="-8.5627"
       id="linearGradient3980">
      <stop
         offset="0"
         stop-color="#ffe69b"
         id="stop2481" />
      <stop
         offset="1"
         stop-color="#fff"
         id="stop2483" />
    </linearGradient>
    <linearGradient
       x1="21.994"
       y1="33.955"
       gradientTransform="matrix(1.003,0,0,1.003,-0.071859,0.019684)"
       x2="20.917"
       gradientUnits="userSpaceOnUse"
       y2="15.815"
       id="linearGradient3982">
      <stop
         offset="0"
         stop-opacity=".33333"
         stop-color="#fffeff"
         id="stop3959" />
      <stop
         offset="1"
         stop-opacity=".21569"
         stop-color="#fffeff"
         id="stop3961" />
    </linearGradient>
    <radialGradient
       inkscape:collect="always"
       xlink:href="#linearGradient11508"
       id="radialGradient1348-3"
       gradientUnits="userSpaceOnUse"
       gradientTransform="matrix(1.3949384,0,0,0.47213365,-6.9978897,20.530591)"
       cx="30.203562"
       cy="44.565483"
       fx="30.203562"
       fy="44.565483"
       r="6.5659914" />
  </defs>
  <sodipodi:namedview
     stroke="#ef2929"
     fill="#eeeeec"
     id="base"
     pagecolor="#ffffff"
     bordercolor="#666666"
     borderopacity="0.25490196"
     inkscape:pageopacity="0.0"
     inkscape:pageshadow="2"
     inkscape:zoom="7"
     inkscape:cx="-2.7857143"
     inkscape:cy="15.110082"
     inkscape:current-layer="layer1"
     showgrid="false"
     inkscape:grid-bbox="true"
     inkscape:document-units="px"
     inkscape:showpageshadow="false"
     inkscape:window-width="1280"
     inkscape:window-height="1000"
     inkscape:window-x="0"
     inkscape:window-y="24"
     inkscape:window-maximized="1" />
  <metadata
     id="metadata4">
    <rdf:RDF>
      <cc:Work
         rdf:about="">
        <dc:format>image/svg+xml</dc:format>
        <dc:type
           rdf:resource="http://purl.org/dc/dcmitype/StillImage" />
        <dc:creator>
          <cc:Agent>
            <dc:title>Jakub Steiner</dc:title>
          </cc:Agent>
        </dc:creator>
        <dc:source>http://jimmac.musichall.cz</dc:source>
        <cc:license
           rdf:resource="http://creativecommons.org/licenses/by-sa/2.0/" />
        <dc:title />
      </cc:Work>
      <cc:License
         rdf:about="http://creativecommons.org/licenses/by-sa/2.0/">
        <cc:permits
           rdf:resource="http://web.resource.org/cc/Reproduction" />
        <cc:permits
           rdf:resource="http://web.resource.org/cc/Distribution" />
        <cc:requires
           rdf:resource="http://web.resource.org/cc/Notice" />
        <cc:requires
           rdf:resource="http://web.resource.org/cc/Attribution" />
        <cc:permits
           rdf:resource="http://web.resource.org/cc/DerivativeWorks" />
        <cc:requires
           rdf:resource="http://web.resource.org/cc/ShareAlike" />
      </cc:License>
    </rdf:RDF>
  </metadata>
  <g
     id="layer1"
     inkscape:label="Layer 1"
     inkscape:groupmode="layer">
    <ellipse
       style="color:#000000;display:inline;overflow:visible;visibility:visible;opacity:0.40641713;fill:url(#radialGradient1348);fill-opacity:1;fill-rule:evenodd;stroke:none;stroke-width:2.81415844;stroke-linecap:butt;stroke-linejoin:miter;stroke-miterlimit:10;stroke-dasharray:none;stroke-dashoffset:0;stroke-opacity:1;marker:none;marker-start:none;marker-mid:none;marker-end:none"
       id="path11530"
       cx="19.845329"
       cy="41.38382"
       rx="13.379933"
       ry="4.5285926" />
    <g
       id="layer1-2"
       inkscape:label="Layer 1"
       transform="matrix(-0.84523513,0,0,-0.84523513,40.372541,43.436447)">
      <path
         inkscape:connector-curvature="0"
         style="fill:url(#radialGradient9657);fill-opacity:1;fill-rule:nonzero;stroke:#f57900;stroke-width:1;stroke-linecap:round;stroke-linejoin:round;stroke-miterlimit:4;stroke-opacity:1"
         d="M 24.285801,43.196358 4.3751874,23.285744 24.285801,3.3751291 44.196415,23.285744 24.285801,43.196358 l 0,0 z"
         id="path53304" />
      <path
         inkscape:connector-curvature="0"
         style="opacity:0.5;fill:#ffffff;fill-rule:nonzero;stroke:none;stroke-miterlimit:4"
         d="m 39.439932,19.376677 -0.73845,1.024184 c -0.636749,-0.268492 -1.300618,-0.485069 -1.986183,-0.644885 l 0.0058,-1.576858 c -0.427728,-0.08834 -0.86301,-0.156136 -1.304105,-0.204371 l -0.481774,1.501889 c -0.344041,-0.02848 -0.691764,-0.04417 -1.043361,-0.04417 -0.351209,0 -0.699124,0.0155 -1.043166,0.04417 l -0.481776,-1.501889 c -0.441287,0.04823 -0.876375,0.116036 -1.304103,0.204371 l 0.006,1.577051 c -0.685758,0.159623 -1.349433,0.3762 -1.986182,0.644692 l -0.92248,-1.279502 C 27.7578,19.303453 27.36591,19.50395 26.985257,19.721881 l 0.492817,1.498016 c -0.59723,0.36225 -1.161723,0.773319 -1.687471,1.227972 L 24.518479,21.51609 C 24.192841,21.812671 23.88115,22.124362 23.584763,22.45 l 0.931585,1.271947 c -0.454847,0.525748 -0.865916,1.090047 -1.228166,1.687665 l -1.498016,-0.493011 c -0.217931,0.380848 -0.418622,0.772932 -0.600328,1.175088 l 1.279308,0.922287 c -0.268492,0.636749 -0.485069,1.300618 -0.645079,1.986376 l -1.576663,-0.0058 c -0.08834,0.427727 -0.156137,0.86301 -0.204178,1.304298 l 1.501695,0.481774 c -0.02886,0.343848 -0.04417,0.691764 -0.04417,1.043167 0,0.351403 0.01569,0.699125 0.04417,1.043361 l -1.501695,0.481774 c 0.04785,0.441094 0.116037,0.876183 0.203984,1.304104 l 1.577051,-0.006 c 0.159816,0.685759 0.376393,1.349627 0.644691,1.986181 L 21.189644,37.5555 c 0.181707,0.402351 0.382591,0.794241 0.600135,1.175089 l 1.498209,-0.493011 c 0.362251,0.597425 0.773319,1.161723 1.227973,1.687277 l -0.931586,1.272141 c 0.278372,0.30588 0.571078,0.598005 0.875408,0.87812 l 18.838994,-18.839189 -1.006942,-1.006942 -0.298712,0.218706 c -0.525748,-0.454653 -1.090046,-0.865722 -1.687469,-1.227972 l 0.241952,-0.735157 -1.108062,-1.108062 3.88e-4,1.93e-4 z"
         id="path53361"
         inkscape:r_cx="true"
         inkscape:r_cy="true" />
      <path
         inkscape:connector-curvature="0"
         style="opacity:0.5;fill:#ffffff;fill-rule:nonzero;stroke:none;stroke-miterlimit:4"
         d="m 19.916729,14.330733 c 0,6.484682 -4.233883,11.979469 -10.0872397,13.874023 l 2.2269717,2.227167 c 0.01685,-0.007 0.0339,-0.01298 0.05056,-0.02015 l 0.181513,0.251832 1.412004,1.412004 c 0.463179,-0.2189 0.91667,-0.45446 1.359315,-0.707648 l -0.694089,-2.109193 c 0.841314,-0.509669 1.635748,-1.08869 2.375747,-1.728732 l 1.79111,1.311659 c 0.458721,-0.41746 0.897297,-0.856036 1.314564,-1.314565 l -1.311466,-1.790914 c 0.640042,-0.740195 1.218869,-1.534628 1.728732,-2.375748 l 2.109387,0.694089 c 0.306654,-0.536403 0.589093,-1.088304 0.844994,-1.654732 L 21.41765,21.101532 c 0.377942,-0.896329 0.682852,-1.831014 0.907758,-2.796501 l 2.219999,0.0085 c 0.124172,-0.602266 0.219869,-1.215188 0.287476,-1.836051 L 22.71846,15.799082 c 0.04029,-0.484293 0.06199,-0.97401 0.06199,-1.46857 0,-0.494753 -0.0217,-0.98447 -0.06199,-1.468763 l 2.114423,-0.677816 c -0.06761,-0.621251 -0.163304,-1.233979 -0.28767,-1.836246 l -2.219805,0.0083 C 22.100501,9.3905563 21.795591,8.4558713 21.417649,7.5595413 l 1.801182,-1.298486 c -0.142383,-0.31479 -0.293869,-0.624931 -0.452136,-0.930423 l -3.804023,3.803636 c 0.616019,1.6142457 0.95425,3.3658377 0.95425,5.1962707 l -1.93e-4,1.94e-4 z"
         id="path53363"
         inkscape:r_cx="true"
         inkscape:r_cy="true" />
      <path
         inkscape:connector-curvature="0"
         id="path9660"
         d="M 24.285792,41.605353 5.9661763,23.285736 24.285792,4.9661187 42.605409,23.285736 24.285792,41.605353 l 0,0 z"
         style="opacity:0.47252748;fill:none;fill-opacity:1;fill-rule:nonzero;stroke:url(#linearGradient9668);stroke-width:1;stroke-linecap:butt;stroke-linejoin:miter;stroke-miterlimit:4;stroke-dasharray:none;stroke-opacity:1"
         inkscape:r_cx="true"
         inkscape:r_cy="true" />
    </g>
    <ellipse
       style="color:#000000;display:inline;overflow:visible;visibility:visible;opacity:0.40641713;fill:url(#radialGradient1348-3);fill-opacity:1;fill-rule:evenodd;stroke:none;stroke-width:2.81415844;stroke-linecap:butt;stroke-linejoin:miter;stroke-miterlimit:10;stroke-dasharray:none;stroke-dashoffset:0;stroke-opacity:1;marker:none;marker-start:none;marker-mid:none;marker-end:none"
       id="path11530-1"
       cx="35.134216"
       cy="41.57143"
       rx="9.1591549"
       ry="3.1000211" />
    <g
       id="g4747"
       transform="matrix(1.3874863,0,0,1.3874863,-10.830379,-8.6298225)">
      <g
         transform="translate(0.99999946,-1.1428563)"
         id="g4621">
        <g
           id="layer1-7"
           transform="matrix(0.33184258,0,0,0.33184258,24.163737,22.234827)">
          <g
             id="g4006">
            <path
               style="fill:#73d216;stroke:#4e9a06;stroke-width:1.08640003"
               inkscape:connector-curvature="0"
               id="path1314"
               d="M 46.857,23.929 C 46.857,36.829 36.4,47.286 23.5,47.286 10.6,47.286 0.143,36.829 0.143,23.929 0.143,11.029 10.6,0.572 23.5,0.572 c 12.9,0 23.357,10.457 23.357,23.357 z"
               transform="matrix(0.92049,0,0,0.92049,2.3685,0.97408)" />
            <path
               style="opacity:0.34658999;fill-opacity:0;stroke:url(#linearGradient3980);stroke-width:1.1681"
               inkscape:connector-curvature="0"
               id="path3560"
               d="m 49.902,26.635 c 0,13.25 -10.741,23.991 -23.991,23.991 -13.25,0 -23.991,-10.741 -23.991,-23.991 0,-13.25 10.741,-23.991 23.991,-23.991 13.25,0 23.991,10.741 23.991,23.991 z"
               transform="matrix(0.85609,0,0,0.85609,1.8183,0.19777)" />
          </g>
        </g>
        <g
           id="layer4"
           transform="matrix(0.33184258,0,0,0.33184258,24.163737,22.234827)">
          <path
             style="fill:url(#linearGradient3982)"
             inkscape:connector-curvature="0"
             id="path3955"
             d="m 43.429,21.8 c 0,10.863 -10.386,-6.285 -18.731,0.388 C 16.547,28.705 4.039,34.415 4.039,23.552 4.0394,12.434 12.761,2.121 23.624,2.121 34.487,2.1208 43.429,10.937 43.429,21.8 Z" />
        </g>
      </g>
      <text
         sodipodi:linespacing="125%"
         id="text4581"
         y="33.521866"
         x="28.53653"
         style="font-style:normal;font-variant:normal;font-weight:500;font-stretch:normal;font-size:13.86519241px;line-height:125%;font-family:Ubuntu;-inkscape-font-specification:'Ubuntu Medium';letter-spacing:0px;word-spacing:0px;fill:#ffffff;fill-opacity:1;stroke:none;stroke-width:1px;stroke-linecap:butt;stroke-linejoin:miter;stroke-opacity:1"
         xml:space="preserve"><tspan
           style="font-style:normal;font-variant:normal;font-weight:500;font-stretch:normal;font-family:Ubuntu;-inkscape-font-specification:'Ubuntu Medium'"
           y="33.521866"
           x="28.53653"
           id="tspan4583"
           sodipodi:role="line">B</tspan></text>
    </g>
  </g>
</svg>
